<svg width="48" height="48" viewBox="0 0 48 48" fill="none" xmlns="http://www.w3.org/2000/svg">
<g clip-path="url(#clip0_7856_22444)">
<path d="M38.4 0H9.6C4.29807 0 0 4.29807 0 9.6V38.4C0 43.7019 4.29807 48 9.6 48H38.4C43.7019 48 48 43.7019 48 38.4V9.6C48 4.29807 43.7019 0 38.4 0Z" fill="#121212"/>
<mask id="mask0_7856_22444" style="mask-type:luminance" maskUnits="userSpaceOnUse" x="8" y="8" width="32" height="32">
<path d="M39.3772 8.64404H8.65723V39.3871H39.3772V8.64404Z" fill="white"/>
</mask>
<g mask="url(#mask0_7856_22444)">
<path d="M25.6722 8.64404L25.0799 8.71124V8.7314C25.1463 8.74307 25.2133 8.75077 25.2806 8.75444C26.2488 8.7808 27.2088 8.94005 28.1337 9.22772C30.3488 9.83588 32.3944 10.9451 34.1126 12.4696C36.6856 14.7039 38.4363 17.7355 39.0854 21.0808C39.2804 22.0608 39.3768 23.0577 39.3734 24.0568C39.3734 28.6316 39.3734 33.2076 39.3734 37.7848C39.3734 37.9884 39.3734 37.9903 39.1756 37.9557C38.6841 37.8693 38.1935 37.7752 37.701 37.6946C37.5551 37.6706 37.5484 37.5861 37.5494 37.4719C37.5494 33.4239 37.5494 29.3756 37.5494 25.3269C37.5494 24.7375 37.5599 24.1471 37.5494 23.5586C37.5139 22.1262 37.24 20.7097 36.7391 19.3672C35.9394 17.1979 34.6011 15.2676 32.85 13.7578C31.099 12.248 28.9927 11.2085 26.7292 10.7368C25.5366 10.4958 24.3172 10.4154 23.1033 10.4978C21.3289 10.6013 19.5947 11.0675 18.0076 11.8677C14.8305 13.4253 12.3948 16.1717 11.2281 19.5122C10.7489 20.8299 10.4894 22.2173 10.4601 23.6191C10.3862 26.2602 11.0839 28.8656 12.4677 31.1164C13.8515 33.3671 15.8614 35.1657 18.2514 36.292C19.4018 36.8393 20.6259 37.2154 21.885 37.4085C23.2221 37.6289 24.5857 37.6354 25.9247 37.4277C26.6332 37.3125 27.3292 37.1224 28.0367 36.9727C28.1484 36.9462 28.264 36.941 28.3775 36.9573C29.2463 37.1119 30.1142 37.276 30.982 37.4373C31.0917 37.453 31.2001 37.4764 31.3065 37.5074C30.1437 38.1825 28.8828 38.6722 27.5692 38.9589C24.3107 39.7582 20.8786 39.4464 17.8175 38.0728C14.8111 36.7498 12.3083 34.4975 10.6768 31.6467C9.04526 28.796 8.37105 25.4971 8.75321 22.2348C9.0245 19.841 9.86847 17.5478 11.2137 15.5493C12.5396 13.5302 14.3293 11.8574 16.4332 10.6706C18.501 9.44938 20.8482 8.7806 23.2492 8.72852L22.6089 8.64404H25.6722Z" fill="#CCCB00"/>
<path d="M36.5579 37.4679L35.9675 37.3566C35.6219 37.2922 35.2763 37.225 34.9288 37.1645C34.8136 37.1444 34.7752 37.0916 34.7752 36.9726C34.7752 32.8766 34.7752 28.7806 34.7752 24.6846C34.8116 23.4684 34.671 22.2535 34.3576 21.0778C33.6825 18.6845 32.1903 16.6034 30.1403 15.1959C28.8008 14.2442 27.2543 13.6243 25.6283 13.3873C23.3503 13.0412 21.0214 13.4352 18.9842 14.5115C16.9469 15.5877 15.3088 17.2894 14.3108 19.3662C13.6077 20.836 13.2476 22.4463 13.2576 24.0756C13.2676 25.7049 13.6475 27.3107 14.3685 28.7718C15.0896 30.2329 16.1331 31.5112 17.4202 32.5102C18.7073 33.5092 20.2045 34.2029 21.7988 34.539C23.861 34.9768 26.0066 34.7941 27.9649 34.0138C28.0273 33.9898 28.0916 33.9726 28.1713 33.9476C28.1802 33.9913 28.1863 34.0356 28.1896 34.0801C28.1896 34.6062 28.1896 35.1361 28.1896 35.6593C28.1988 35.7201 28.1839 35.7822 28.148 35.8322C28.1121 35.8822 28.0582 35.9163 27.9976 35.9271C26.8061 36.314 25.5653 36.5284 24.3131 36.5636C22.008 36.6413 19.7285 36.0602 17.7419 34.8884C15.0307 33.3355 13.0012 30.8216 12.0549 27.8439C11.5943 26.4462 11.3954 24.9755 11.4683 23.5057C11.5897 20.762 12.6034 18.133 14.3553 16.018C16.1073 13.9031 18.5017 12.4178 21.1749 11.7879C22.4568 11.482 23.7803 11.3882 25.0926 11.5105C28.2327 11.7834 31.1553 13.227 33.2805 15.5547C35.4056 17.8824 36.5779 20.9241 36.5646 24.0759C36.5646 28.5137 36.5646 32.9514 36.5646 37.3892C36.5646 37.4094 36.5646 37.4295 36.5579 37.4679Z" fill="#3A9825"/>
<path d="M28.17 30.8068C28.1779 30.8384 28.1836 30.8705 28.1873 30.9028C28.1873 31.5083 28.1873 32.1137 28.1873 32.7191C28.189 32.762 28.1763 32.8042 28.1512 32.839C28.1262 32.8738 28.0902 32.8992 28.049 32.9112C27.2305 33.2713 26.369 33.5246 25.4858 33.6648C24.8142 33.7647 24.134 33.794 23.4564 33.7521C21.0956 33.6206 18.8637 32.6329 17.1789 30.9739C16.1169 29.9301 15.3058 28.6588 14.8068 27.2558C14.4218 26.195 14.2328 25.0731 14.249 23.9448C14.2588 21.5662 15.1478 19.2753 16.745 17.5127C17.6009 16.5503 18.6396 15.7675 19.8007 15.21C20.9617 14.6525 22.2221 14.3313 23.5084 14.2652C24.7947 14.1991 26.0813 14.3894 27.2934 14.825C28.5055 15.2605 29.619 15.9327 30.569 16.8024C32.121 18.2019 33.1779 20.0665 33.5815 22.1169C33.7182 22.8198 33.7825 23.535 33.7735 24.251C33.7735 28.3515 33.7735 32.452 33.7735 36.5524C33.7735 36.9297 33.7735 36.9364 33.402 36.8692C32.9728 36.7943 32.5447 36.7099 32.1146 36.636C32.0071 36.6177 31.9581 36.5736 31.961 36.4612C31.961 36.2827 31.961 36.1032 31.961 35.9246C31.961 32.0193 31.9562 28.1131 31.9668 24.2078C32.011 22.3927 31.432 20.6173 30.3261 19.1774C29.1251 17.5561 27.3296 16.4778 25.3341 16.1793C23.8905 15.9077 22.3994 16.0532 21.0355 16.5987C19.6716 17.1441 18.4913 18.0669 17.633 19.259C16.7648 20.3567 16.2345 21.6832 16.1066 23.0769C15.9244 24.4853 16.1301 25.9168 16.7016 27.2169C17.2731 28.517 18.1886 29.6365 19.3495 30.4545C20.3979 31.2441 21.6373 31.7411 22.9408 31.8945C24.648 32.1345 26.3869 31.8098 27.8925 30.97C27.9789 30.922 28.0605 30.8654 28.1632 30.8001" fill="#00A7C9"/>
<path d="M28.1911 27.1106C28.1911 27.2559 28.1911 27.4012 28.1911 27.5464C28.1911 28.1359 28.1844 28.7253 28.1979 29.3147C28.2071 29.4014 28.1907 29.4888 28.1508 29.5663C28.1108 29.6437 28.0491 29.7078 27.9732 29.7506C27.1385 30.3252 26.1883 30.7105 25.1892 30.8795C24.2744 31.035 23.3377 31.0062 22.4341 30.7949C21.5305 30.5836 20.6783 30.1941 19.9272 29.6491C19.1761 29.1042 18.5414 28.4147 18.0603 27.6213C17.5791 26.8278 17.2612 25.9463 17.1252 25.0284C16.869 23.3232 17.2583 21.5838 18.2172 20.1507C19.176 18.7175 20.6353 17.6939 22.3092 17.2802C23.3387 17.025 24.4129 17.0078 25.4501 17.23C26.4872 17.4522 27.4601 17.9078 28.2948 18.5623C29.1295 19.2168 29.804 20.0529 30.2671 21.0071C30.7302 21.9614 30.9698 23.0086 30.9675 24.0693C30.9726 28.1327 30.9726 32.1967 30.9675 36.2613C30.9675 36.3074 30.9617 36.3573 30.9569 36.4207C30.7207 36.3785 30.5 36.34 30.2801 36.2988C29.97 36.2412 29.6619 36.1672 29.3499 36.1308C29.1752 36.1106 29.1406 36.0462 29.1406 35.885C29.1444 31.9003 29.1444 27.9157 29.1406 23.9311C29.1497 22.665 28.668 21.4445 27.7966 20.526C27.0667 19.7114 26.0879 19.1612 25.0126 18.9612C23.8703 18.7229 22.6807 18.8846 21.6434 19.4191C20.6061 19.9535 19.7841 20.8283 19.315 21.8968C18.8989 22.7645 18.7435 23.7343 18.8677 24.6886C18.9919 25.6429 19.3904 26.5406 20.0148 27.2728C20.4338 27.8144 20.9628 28.2611 21.5669 28.5834C22.1711 28.9058 22.8366 29.0965 23.5198 29.1429C24.3615 29.2324 25.2122 29.1101 25.9946 28.7872C26.7771 28.4643 27.4665 27.951 28.0001 27.294C28.0539 27.2316 28.0961 27.1614 28.1489 27.0952L28.1883 27.1058" fill="#963584"/>
</g>
</g>
<defs>
<clipPath id="clip0_7856_22444">
<rect width="48" height="48" fill="white"/>
</clipPath>
</defs>
</svg>
