<svg width="12" height="6" viewBox="0 0 12 6" fill="none" xmlns="http://www.w3.org/2000/svg">
<path d="M11.7508 0.247421C11.5899 0.0890705 11.3708 0 11.1423 0C10.9138 0 10.6947 0.0890705 10.5338 0.247421L6.6085 4.07837C6.44758 4.23672 6.22852 4.32579 6 4.32579C5.77148 4.32579 5.55242 4.23672 5.3915 4.07837L1.46623 0.247421C1.3053 0.0890705 1.08625 0 0.857725 0C0.629205 0 0.410147 0.0890705 0.249223 0.247421C-0.0830742 0.573668 -0.0830742 1.10057 0.249223 1.42682L4.18306 5.26613C5.1869 6.24462 6.81311 6.24462 7.81694 5.26613L11.7508 1.42682C12.0831 1.10057 12.0831 0.573668 11.7508 0.247421Z" fill="#626984"/>
</svg>
