<svg width="9" height="18" viewBox="0 0 9 18" fill="none" xmlns="http://www.w3.org/2000/svg">
<path d="M8.62887 17.6262C8.86639 17.3848 9 17.0562 9 16.7134C9 16.3706 8.86639 16.042 8.62887 15.8007L2.88245 9.91275C2.64492 9.67136 2.51132 9.34278 2.51132 9C2.51132 8.65722 2.64492 8.32863 2.88245 8.08724L8.62887 2.19934C8.86639 1.95795 9 1.62937 9 1.28659C9 0.943807 8.86639 0.615221 8.62887 0.373834C8.1395 -0.124611 7.34914 -0.124611 6.85977 0.373834L1.10081 6.2746C-0.366936 7.78034 -0.366934 10.2197 1.10081 11.7254L6.85977 17.6262C7.34914 18.1246 8.1395 18.1246 8.62887 17.6262Z" fill="#101F3C"/>
</svg>
