<svg width="10" height="5" viewBox="0 0 10 5" fill="none" xmlns="http://www.w3.org/2000/svg">
<path d="M9.55701 0.206184C9.42613 0.0742254 9.24797 0 9.06211 0C8.87625 0 8.69809 0.0742254 8.56721 0.206184L5.37475 3.39864C5.24387 3.5306 5.06571 3.60483 4.87985 3.60483C4.694 3.60483 4.51583 3.5306 4.38495 3.39864L1.1925 0.206184C1.06161 0.0742254 0.883453 0 0.697596 0C0.511738 0 0.333576 0.0742254 0.202695 0.206184C-0.067565 0.478057 -0.067565 0.917142 0.202695 1.18901L3.40212 4.38844C4.21855 5.20385 5.54116 5.20385 6.35758 4.38844L9.55701 1.18901C9.82727 0.917142 9.82727 0.478057 9.55701 0.206184Z" fill="#626984"/>
</svg>
