<svg width="48" height="48" viewBox="0 0 48 48" fill="none" xmlns="http://www.w3.org/2000/svg">
<mask id="mask0_7856_22238" style="mask-type:alpha" maskUnits="userSpaceOnUse" x="0" y="0" width="48" height="48">
<path d="M0 10C0 4.47715 4.47715 0 10 0H38C43.5229 0 48 4.47715 48 10V38C48 43.5229 43.5228 48 38 48H10C4.47715 48 0 43.5228 0 38V10Z" fill="#0E112C"/>
</mask>
<g mask="url(#mask0_7856_22238)">
<path d="M0 10C0 4.47715 4.47715 0 10 0H38C43.5229 0 48 4.47715 48 10V38C48 43.5229 43.5228 48 38 48H10C4.47715 48 0 43.5228 0 38V10Z" fill="#101F3C"/>
</g>
<path fill-rule="evenodd" clip-rule="evenodd" d="M34.2601 13.4761C34.5404 11.8517 34.9517 10.8306 35.4066 10.8284H35.4077C36.2575 10.8317 36.9459 14.3739 36.9459 18.7473C36.9459 23.1208 36.2564 26.6663 35.4055 26.6663C35.0564 26.6663 34.7357 26.0641 34.4761 25.0561C34.067 28.7488 33.2172 31.2873 32.2343 31.2873C31.4739 31.2873 30.791 29.7623 30.3328 27.3579C30.0197 31.931 29.2321 35.1764 28.3113 35.1764C27.7332 35.1764 27.2063 33.8903 26.8168 31.7968C26.3477 36.119 25.2644 39.1473 24.0012 39.1473C22.7379 39.1473 21.6524 36.1201 21.1855 31.7968C20.7983 33.8903 20.2713 35.1764 19.691 35.1764C18.7703 35.1764 17.9848 31.931 17.6695 27.3579C17.2113 29.7623 16.5306 31.2873 15.767 31.2873C14.7852 31.2873 13.9343 28.7499 13.5252 25.0561C13.2677 26.0673 12.9448 26.6663 12.5957 26.6663C11.7448 26.6663 11.0553 23.1208 11.0553 18.7473C11.0553 14.3739 11.7448 10.8284 12.5957 10.8284C13.0517 10.8284 13.4608 11.8528 13.7433 13.4761C14.1972 10.6746 14.9335 8.85498 15.767 8.85498C16.7564 8.85498 17.6128 11.4295 18.0186 15.1681C18.4157 12.4473 19.0168 10.7128 19.691 10.7128C20.6357 10.7128 21.4386 14.1241 21.7364 18.8837C22.2961 16.4433 23.1055 14.9128 24.0023 14.9128C24.899 14.9128 25.7084 16.4444 26.267 18.8837C26.5659 14.1252 27.3677 10.7128 28.3124 10.7128C28.9855 10.7128 29.5866 12.4473 29.9848 15.1681C30.3895 11.4295 31.2459 8.85498 32.2353 8.85498C33.0666 8.85498 33.8063 10.6757 34.2601 13.4761ZM8.85498 17.9684C8.85498 16.0135 9.24553 14.4284 9.7288 14.4284C10.211 14.4284 10.6026 16.0135 10.6026 17.9684C10.6026 19.9233 10.2121 21.5084 9.7288 21.5084C9.24553 21.5084 8.85498 19.9233 8.85498 17.9684ZM37.3986 17.9684C37.3986 16.0135 37.7892 14.4284 38.2724 14.4284C38.7546 14.4284 39.1463 16.0135 39.1463 17.9684C39.1463 19.9233 38.7557 21.5084 38.2724 21.5084C37.7892 21.5084 37.3986 19.9233 37.3986 17.9684Z" fill="#A238FF"/>
</svg>
