<svg width="48" height="48" viewBox="0 0 48 48" fill="none" xmlns="http://www.w3.org/2000/svg">
<g clip-path="url(#clip0_7856_21267)">
<path d="M24.0073 0C13.9876 0 11.0572 0.0103406 10.4875 0.0575999C8.43132 0.228568 7.15182 0.552416 5.75785 1.24661C4.6836 1.78021 3.83637 2.39872 3.00021 3.26575C1.47743 4.84693 0.554526 6.79219 0.220428 9.10452C0.0580051 10.2271 0.0107455 10.456 0.00114851 16.1899C-0.00253427 18.1012 0.00114851 20.6166 0.00114851 23.9906C0.00114851 34.005 0.0122149 36.9332 0.0602179 37.5019C0.226342 39.5033 0.540121 40.7625 1.20462 42.1398C2.47454 44.7763 4.89991 46.7556 7.75723 47.4941C8.74659 47.7489 9.8393 47.8892 11.2421 47.9557C11.8365 47.9815 17.8944 48 23.956 48C30.0177 48 36.0793 47.9926 36.6589 47.9631C38.2832 47.8866 39.2264 47.76 40.2693 47.4904C43.145 46.7482 45.5261 44.7985 46.8219 42.125C47.4735 40.7809 47.8039 39.4737 47.9534 37.5768C47.9859 37.1633 47.9995 30.5693 47.9995 23.9843C47.9995 17.3981 47.9848 10.8164 47.9523 10.4028C47.8009 8.47529 47.4705 7.17919 46.7979 5.80922C46.246 4.68777 45.6332 3.85027 44.7435 2.99398C43.1558 1.47705 41.214 0.553885 38.9001 0.220077C37.7789 0.0579629 37.5556 0.00995981 31.8188 0H24.0073Z" fill="url(#paint0_radial_7856_21267)"/>
<path d="M24.0073 0C13.9876 0 11.0572 0.0103406 10.4875 0.0575999C8.43132 0.228568 7.15182 0.552416 5.75785 1.24661C4.6836 1.78021 3.83637 2.39872 3.00021 3.26575C1.47743 4.84693 0.554526 6.79219 0.220428 9.10452C0.0580051 10.2271 0.0107455 10.456 0.00114851 16.1899C-0.00253427 18.1012 0.00114851 20.6166 0.00114851 23.9906C0.00114851 34.005 0.0122149 36.9332 0.0602179 37.5019C0.226342 39.5033 0.540121 40.7625 1.20462 42.1398C2.47454 44.7763 4.89991 46.7556 7.75723 47.4941C8.74659 47.7489 9.8393 47.8892 11.2421 47.9557C11.8365 47.9815 17.8944 48 23.956 48C30.0177 48 36.0793 47.9926 36.6589 47.9631C38.2832 47.8866 39.2264 47.76 40.2693 47.4904C43.145 46.7482 45.5261 44.7985 46.8219 42.125C47.4735 40.7809 47.8039 39.4737 47.9534 37.5768C47.9859 37.1633 47.9995 30.5693 47.9995 23.9843C47.9995 17.3981 47.9848 10.8164 47.9523 10.4028C47.8009 8.47529 47.4705 7.17919 46.7979 5.80922C46.246 4.68777 45.6332 3.85027 44.7435 2.99398C43.1558 1.47705 41.214 0.553885 38.9001 0.220077C37.7789 0.0579629 37.5556 0.00995981 31.8188 0H24.0073Z" fill="url(#paint1_radial_7856_21267)"/>
<path d="M24.0073 0C13.9876 0 11.0572 0.0103406 10.4875 0.0575999C8.43132 0.228568 7.15182 0.552416 5.75785 1.24661C4.6836 1.78021 3.83637 2.39872 3.00021 3.26575C1.47743 4.84693 0.554526 6.79219 0.220428 9.10452C0.0580051 10.2271 0.0107455 10.456 0.00114851 16.1899C-0.00253427 18.1012 0.00114851 20.6166 0.00114851 23.9906C0.00114851 34.005 0.0122149 36.9332 0.0602179 37.5019C0.226342 39.5033 0.540121 40.7625 1.20462 42.1398C2.47454 44.7763 4.89991 46.7556 7.75723 47.4941C8.74659 47.7489 9.8393 47.8892 11.2421 47.9557C11.8365 47.9815 17.8944 48 23.956 48C30.0177 48 36.0793 47.9926 36.6589 47.9631C38.2832 47.8866 39.2264 47.76 40.2693 47.4904C43.145 46.7482 45.5261 44.7985 46.8219 42.125C47.4735 40.7809 47.8039 39.4737 47.9534 37.5768C47.9859 37.1633 47.9995 30.5693 47.9995 23.9843C47.9995 17.3981 47.9848 10.8164 47.9523 10.4028C47.8009 8.47529 47.4705 7.17919 46.7979 5.80922C46.246 4.68777 45.6332 3.85027 44.7435 2.99398C43.1558 1.47705 41.214 0.553885 38.9001 0.220077C37.7789 0.0579629 37.5556 0.00995981 31.8188 0H24.0073Z" fill="url(#paint2_radial_7856_21267)"/>
<path d="M24.0073 0C13.9876 0 11.0572 0.0103406 10.4875 0.0575999C8.43132 0.228568 7.15182 0.552416 5.75785 1.24661C4.6836 1.78021 3.83637 2.39872 3.00021 3.26575C1.47743 4.84693 0.554526 6.79219 0.220428 9.10452C0.0580051 10.2271 0.0107455 10.456 0.00114851 16.1899C-0.00253427 18.1012 0.00114851 20.6166 0.00114851 23.9906C0.00114851 34.005 0.0122149 36.9332 0.0602179 37.5019C0.226342 39.5033 0.540121 40.7625 1.20462 42.1398C2.47454 44.7763 4.89991 46.7556 7.75723 47.4941C8.74659 47.7489 9.8393 47.8892 11.2421 47.9557C11.8365 47.9815 17.8944 48 23.956 48C30.0177 48 36.0793 47.9926 36.6589 47.9631C38.2832 47.8866 39.2264 47.76 40.2693 47.4904C43.145 46.7482 45.5261 44.7985 46.8219 42.125C47.4735 40.7809 47.8039 39.4737 47.9534 37.5768C47.9859 37.1633 47.9995 30.5693 47.9995 23.9843C47.9995 17.3981 47.9848 10.8164 47.9523 10.4028C47.8009 8.47529 47.4705 7.17919 46.7979 5.80922C46.246 4.68777 45.6332 3.85027 44.7435 2.99398C43.1558 1.47705 41.214 0.553885 38.9001 0.220077C37.7789 0.0579629 37.5556 0.00995981 31.8188 0H24.0073Z" fill="url(#paint3_radial_7856_21267)"/>
<path d="M24.0094 6.16309C19.1625 6.16309 18.5542 6.18426 16.6506 6.27083C14.7506 6.35776 13.4538 6.65834 12.319 7.09936C11.1452 7.55485 10.1495 8.16416 9.15753 9.15576C8.16481 10.147 7.55503 11.142 7.09772 12.3145C6.65526 13.4488 6.35409 14.7451 6.26859 16.6429C6.18345 18.5451 6.16113 19.1533 6.16113 23.9966C6.16113 28.8399 6.1827 29.4458 6.26895 31.3481C6.35634 33.2466 6.65713 34.5425 7.09808 35.6764C7.55429 36.8494 8.16405 37.8443 9.15641 38.8356C10.148 39.8275 11.1437 40.4384 12.3168 40.8938C13.4523 41.3348 14.7495 41.6354 16.6491 41.7224C18.5527 41.8089 19.1606 41.8301 24.0071 41.8301C28.8544 41.8301 29.4608 41.8089 31.3645 41.7224C33.2644 41.6354 34.5628 41.3348 35.6983 40.8938C36.8717 40.4384 37.8659 39.8275 38.8575 38.8356C39.8502 37.8443 40.46 36.8494 40.9173 35.6768C41.356 34.5425 41.6572 33.2462 41.7465 31.3485C41.832 29.4462 41.8543 28.8399 41.8543 23.9966C41.8543 19.1533 41.832 18.5455 41.7465 16.6432C41.6572 14.7447 41.356 13.4488 40.9173 12.3149C40.46 11.142 39.8502 10.147 38.8575 9.15576C37.8648 8.16377 36.872 7.55447 35.6971 7.09934C34.5594 6.65834 33.2618 6.35776 31.3619 6.27083C29.4582 6.18426 28.8522 6.16309 24.0038 6.16309H24.0094ZM22.4084 9.37684C22.8836 9.3761 23.4137 9.37684 24.0094 9.37684C28.7745 9.37684 29.3392 9.39393 31.2209 9.47938C32.961 9.55889 33.9054 9.84941 34.5345 10.0935C35.3673 10.4167 35.9611 10.8031 36.5854 11.4273C37.21 12.0515 37.5967 12.6459 37.9209 13.4782C38.1652 14.106 38.4563 15.0497 38.5355 16.7885C38.621 18.6685 38.6396 19.2332 38.6396 23.9925C38.6396 28.7518 38.621 29.3166 38.5355 31.1965C38.4559 32.9353 38.1652 33.879 37.9209 34.5068C37.5975 35.3391 37.21 35.9317 36.5854 36.5555C35.9608 37.1796 35.3677 37.566 34.5345 37.8893C33.9061 38.1345 32.961 38.4243 31.2209 38.5038C29.3396 38.5892 28.7745 38.6078 24.0094 38.6078C19.2439 38.6078 18.6791 38.5892 16.7978 38.5038C15.0577 38.4235 14.1134 38.133 13.4839 37.8889C12.651 37.5657 12.0561 37.1793 11.4315 36.5551C10.8069 35.9309 10.4202 35.338 10.096 34.5054C9.85169 33.8775 9.56057 32.9338 9.48138 31.195C9.39586 29.3151 9.37875 28.7503 9.37875 23.988C9.37875 19.2258 9.39586 18.664 9.48138 16.7841C9.56095 15.0453 9.85169 14.1016 10.096 13.473C10.4194 12.6407 10.8069 12.0463 11.4315 11.4221C12.0561 10.7979 12.651 10.4116 13.4839 10.0876C14.113 9.84236 15.0577 9.55258 16.7978 9.47268C18.4442 9.39837 19.0822 9.3761 22.4084 9.37236L22.4084 9.37684ZM33.5358 12.3379C32.3535 12.3379 31.3942 13.2954 31.3942 14.4772C31.3942 15.6587 32.3535 16.6172 33.5358 16.6172C34.7182 16.6172 35.6774 15.6587 35.6774 14.4772C35.6774 13.2957 34.7182 12.3372 33.5358 12.3372L33.5358 12.3379ZM24.0094 14.8383C18.948 14.8383 14.8443 18.9389 14.8443 23.9966C14.8443 29.0543 18.948 33.153 24.0094 33.153C29.0708 33.153 33.1729 29.0543 33.1729 23.9966C33.1729 18.9389 29.0704 14.8383 24.009 14.8383H24.0094ZM24.0094 18.0521C27.2947 18.0521 29.9583 20.7134 29.9583 23.9966C29.9583 27.2794 27.2947 29.9411 24.0094 29.9411C20.7237 29.9411 18.0605 27.2794 18.0605 23.9966C18.0605 20.7134 20.7237 18.0521 24.0094 18.0521Z" fill="white"/>
</g>
<defs>
<radialGradient id="paint0_radial_7856_21267" cx="0" cy="0" r="1" gradientTransform="matrix(-29.5179 8.32472 -5.99765 -21.2662 46.4496 22.4982)" gradientUnits="userSpaceOnUse">
<stop stop-color="#FF005F"/>
<stop offset="1" stop-color="#FC01D8"/>
</radialGradient>
<radialGradient id="paint1_radial_7856_21267" cx="0" cy="0" r="1" gradientUnits="userSpaceOnUse" gradientTransform="translate(12.7491 51.697) rotate(-90) scale(38.3145 40.6509)">
<stop stop-color="#FFCC00"/>
<stop offset="0.1242" stop-color="#FFCC00"/>
<stop offset="0.5672" stop-color="#FE4A05"/>
<stop offset="0.6942" stop-color="#FF0F3F"/>
<stop offset="1" stop-color="#FE0657" stop-opacity="0"/>
</radialGradient>
<radialGradient id="paint2_radial_7856_21267" cx="0" cy="0" r="1" gradientTransform="matrix(7.95273 -13.7028 17.8395 10.3536 25.2124 47.3231)" gradientUnits="userSpaceOnUse">
<stop stop-color="#FFCC00"/>
<stop offset="1" stop-color="#FFCC00" stop-opacity="0"/>
</radialGradient>
<radialGradient id="paint3_radial_7856_21267" cx="0" cy="0" r="1" gradientTransform="matrix(-29.1938 8.22048 -2.79999 -9.9465 6.51208 1.95455)" gradientUnits="userSpaceOnUse">
<stop stop-color="#780CFF"/>
<stop offset="1" stop-color="#820BFF" stop-opacity="0"/>
</radialGradient>
<clipPath id="clip0_7856_21267">
<rect width="48" height="48" fill="white"/>
</clipPath>
</defs>
</svg>
