<svg width="48" height="48" viewBox="0 0 48 48" fill="none" xmlns="http://www.w3.org/2000/svg">
<path fill-rule="evenodd" clip-rule="evenodd" d="M47.9971 15.0144C47.9971 14.4384 47.9971 13.865 47.9971 13.2941C47.9971 12.8141 47.9894 12.3283 47.976 11.8464C47.9629 10.7904 47.8701 9.73681 47.6986 8.69472C47.5201 7.65151 47.1872 6.64072 46.7107 5.69568C45.7434 3.79828 44.2002 2.2558 42.3024 1.28928C41.3572 0.813172 40.3465 0.480252 39.3034 0.30144C38.2609 0.129882 37.2071 0.0371398 36.1507 0.024C35.6678 0.01056 35.185 0.00576 34.7021 0C34.1261 0 33.5526 0 32.9818 0H15.0115C14.4355 0 13.8621 0 13.2912 0C12.8112 0 12.3254 0.00768 11.8435 0.02112C10.7868 0.034529 9.73263 0.127593 8.68992 0.29952C7.64776 0.478791 6.63822 0.812715 5.69472 1.29024C3.7969 2.25676 2.25374 3.79924 1.2864 5.69664C0.809935 6.64168 0.476997 7.65247 0.29856 8.69568C0.127051 9.73778 0.034308 10.7913 0.02112 11.8474C0.00768 12.3274 0.00288 12.8131 0 13.295C0 13.8672 0 14.44 0 15.0134V32.9837C0 33.5597 0 34.1331 0 34.704C0 35.184 0.00768 35.6698 0.02112 36.1517C0.0342352 37.2077 0.126978 38.2613 0.29856 39.3034C0.476997 40.3466 0.809935 41.3574 1.2864 42.3024C2.25374 44.1998 3.7969 45.7423 5.69472 46.7088C6.63901 47.1846 7.64875 47.5175 8.69088 47.6966C9.73361 47.8682 10.7878 47.961 11.8445 47.9741C12.3245 47.9875 12.8102 47.9923 13.2922 47.9952C13.8682 47.9952 14.4384 47.9952 15.0125 47.9952H32.9808C33.5568 47.9952 34.1302 47.9952 34.7011 47.9952C35.1811 47.9952 35.6669 47.9875 36.1488 47.9741C37.2055 47.961 38.2597 47.8682 39.3024 47.6966C40.3447 47.5184 41.3546 47.1854 42.2986 46.7088C44.1964 45.7423 45.7395 44.1998 46.7069 42.3024C47.1833 41.3574 47.5163 40.3466 47.6947 39.3034C47.8662 38.2613 47.959 37.2077 47.9722 36.1517C47.9856 35.6717 47.9904 35.1859 47.9933 34.704C47.9933 34.128 47.9933 33.5578 47.9933 32.9837V15.0144H47.9971Z" fill="url(#paint0_linear_7856_21200)"/>
<defs>
<linearGradient id="paint0_linear_7856_21200" x1="23.9986" y1="47.8032" x2="23.9986" y2="1.0559" gradientUnits="userSpaceOnUse">
<stop stop-color="#FA233B"/>
<stop offset="1" stop-color="#FB5C74"/>
</linearGradient>
</defs>
</svg>
