<svg width="26" height="33" viewBox="0 0 26 33" fill="none" xmlns="http://www.w3.org/2000/svg">
<path fill-rule="evenodd" clip-rule="evenodd" d="M24.4449 0.00592422C24.3288 0.0164842 23.2987 0.197924 23.1739 0.224804L8.90733 3.1048H8.90157C8.57663 3.16244 8.27113 3.30001 8.01261 3.50512C7.74332 3.74376 7.57226 4.0739 7.53261 4.43152C7.51021 4.59052 7.49962 4.75096 7.50093 4.91152V22.7675C7.53993 23.1823 7.42776 23.5972 7.18509 23.9358C6.91631 24.2368 6.54484 24.4264 6.14349 24.4677L5.21133 24.6597C4.31409 24.8095 3.43099 25.0343 2.57133 25.3317C1.98341 25.5437 1.45109 25.886 1.01421 26.333C0.33029 27.0698 -0.033554 28.0478 0.00243713 29.0525C0.0384283 30.0572 0.471318 31.0066 1.20621 31.6926C1.68977 32.1417 2.28761 32.4489 2.93421 32.5806C3.79238 32.7129 4.66854 32.6685 5.50893 32.4501C6.09537 32.3417 6.659 32.1339 7.17549 31.8357C7.6956 31.5302 8.14358 31.1159 8.48877 30.6213C8.83107 30.1256 9.06886 29.5654 9.18765 28.9749C9.30375 28.3928 9.35685 27.8 9.34605 27.2066V11.7141C9.34605 10.8846 9.58029 10.6658 10.2504 10.5035C10.2504 10.5035 22.1092 8.11121 22.6622 8.00752C23.4302 7.85968 23.7979 8.07952 23.7979 8.88881V19.4565C23.848 19.8747 23.7457 20.297 23.5099 20.6459C23.2411 20.9468 22.8696 21.1365 22.4683 21.1778L21.5361 21.3698C20.6389 21.5196 19.7558 21.7444 18.8961 22.0418C18.3082 22.2538 17.7759 22.5961 17.339 23.043C16.9921 23.4036 16.7213 23.8303 16.5427 24.2977C16.364 24.765 16.2812 25.2636 16.2991 25.7636C16.317 26.2636 16.4353 26.7549 16.6469 27.2083C16.8586 27.6617 17.1592 28.0679 17.531 28.4027C18.0155 28.849 18.6132 29.1535 19.259 29.283C20.1172 29.4147 20.9932 29.3702 21.8337 29.1525C22.4198 29.0468 22.9834 28.8416 23.5003 28.5458C24.0204 28.2403 24.4684 27.826 24.8136 27.3314C25.1559 26.8357 25.3937 26.2755 25.5124 25.685C25.6204 25.102 25.6651 24.5092 25.6459 23.9166V1.26736C25.6478 0.448484 25.2168 -0.0612758 24.4449 0.00592422Z" fill="white"/>
</svg>
