<svg width="8" height="11" viewBox="0 0 8 11" fill="none" xmlns="http://www.w3.org/2000/svg">
<path d="M4.717 0.0648187C3.54956 -0.147892 2.34793 0.168735 1.43689 0.929122C0.525859 1.68951 -0.000529367 2.81515 3.9949e-07 4.00182C8.76327e-07 4.5541 0.447717 5.00182 1 5.00182C1.55229 5.00182 2 4.5541 2 4.00182C1.99949 3.40612 2.26455 2.8412 2.72302 2.46085C3.18149 2.0805 3.78564 1.92432 4.371 2.03482C5.17905 2.19167 5.81162 2.82227 5.971 3.62982C6.13244 4.47989 5.72891 5.33738 4.971 5.75482C3.72493 6.47674 2.96988 7.81904 3 9.25882V10.0018C3 10.5541 3.44772 11.0018 4 11.0018C4.55229 11.0018 5 10.5541 5 10.0018V9.25882C4.97446 8.55055 5.32905 7.88254 5.93 7.50682C7.41469 6.69137 8.22477 5.02917 7.95228 3.35734C7.67978 1.68552 6.38379 0.366595 4.717 0.0648187Z" fill="#626984"/>
</svg>
