<svg width="14" height="28" viewBox="0 0 14 28" fill="none" xmlns="http://www.w3.org/2000/svg">
<path d="M13.4179 20.763C13.4623 21.3466 13.4146 21.9336 13.2768 22.5025C13.0967 23.2163 12.782 23.8892 12.3494 24.4849C11.308 26.0682 9.65445 27.1465 7.7856 27.4609C6.42675 27.7339 5.01591 27.5552 3.768 26.9521C2.84373 26.543 2.02344 25.9311 1.368 25.1617C0.845993 24.5017 0.800867 23.583 1.25568 22.875C1.57884 22.1808 2.27272 21.7347 3.0384 21.7287C3.76064 21.6699 4.46949 21.9484 4.9584 22.4833C5.40423 22.8946 5.99486 23.1124 6.60096 23.089C7.14338 23.1194 7.67665 22.9396 8.08992 22.587C8.56102 22.2486 8.88516 21.7431 8.99616 21.1738C9.09412 20.7295 9.1149 20.2716 9.0576 19.8203C9.0576 19.6628 8.92128 19.6954 8.82144 19.7722C7.8939 20.2071 6.85805 20.3565 5.84544 20.2014C4.27378 20.0219 2.82518 19.2639 1.78176 18.075C1.04495 17.2933 0.508094 16.3451 0.216961 15.3111C0.107349 14.844 0.0348029 14.3689 0 13.8903C0.08544 13.8183 0.06912 13.7194 0.06912 13.6254C0.06912 11.283 0.06656 8.94025 0.06144 6.59721C-0.00694611 6.10892 0.0646257 5.61124 0.267839 5.16201C0.908881 2.84564 2.76904 1.06769 5.112 0.531928C6.54766 0.120136 8.08946 0.316245 9.37632 1.07433C9.5416 1.19533 9.76853 1.18617 9.92352 1.05225C10.3945 0.723464 10.8897 0.430788 11.4048 0.176727C11.7776 -0.0330274 12.2268 -0.0574076 12.6202 0.110763C13.0135 0.278934 13.3062 0.620515 13.4122 1.03497C13.4122 5.56937 13.4122 10.1041 13.4122 14.6391C13.4122 16.682 13.415 18.7246 13.4208 20.7668M4.47168 6.76041C4.37568 6.86409 4.40736 6.99081 4.40736 7.11081C4.40736 9.22729 4.40736 11.3438 4.40736 13.4602C4.40736 13.5793 4.38144 13.707 4.47456 13.8097C4.60424 14.9767 5.60138 15.8529 6.77539 15.8315C7.9494 15.8101 8.91392 14.8981 9.00096 13.7271C9.07009 13.6251 9.09534 13.4995 9.07104 13.3786C9.07104 11.3172 9.07104 9.25545 9.07104 7.19337C9.07104 7.07433 9.096 6.94665 9.00288 6.84393C8.97763 6.71388 8.94396 6.58561 8.90208 6.45993C8.76948 5.64108 8.14286 4.99037 7.3296 4.82697C6.68932 4.64257 6.00023 4.75179 5.44835 5.12514C4.89648 5.49849 4.53873 6.09749 4.47168 6.76041Z" fill="#2669B2"/>
</svg>
