<svg width="48" height="48" viewBox="0 0 48 48" fill="none" xmlns="http://www.w3.org/2000/svg">
<g clip-path="url(#clip0_7856_22461)">
<path d="M38.4 0H9.6C4.29807 0 0 4.29807 0 9.6V38.4C0 43.7019 4.29807 48 9.6 48H38.4C43.7019 48 48 43.7019 48 38.4V9.6C48 4.29807 43.7019 0 38.4 0Z" fill="url(#paint0_linear_7856_22461)"/>
<path d="M32.2491 15.0192L34.7451 10.6867C35.0961 10.0787 35.1912 9.35617 35.0094 8.67807C34.8277 7.99997 34.384 7.42184 33.776 7.07086C33.168 6.71988 32.4455 6.62481 31.7674 6.80656C31.0893 6.9883 30.5111 7.43198 30.1602 8.03998L27.6526 12.3725C25.494 11.6975 23.1904 11.6358 20.9987 12.1941C18.8071 12.7525 16.8137 13.9089 15.2412 15.5343C13.6686 17.1597 12.5787 19.1902 12.0932 21.3991C11.6076 23.608 11.7454 25.9084 12.4913 28.0435L17.1089 20.0352C17.63 19.1301 18.325 18.337 19.1539 17.7017C19.9828 17.0664 20.9293 16.6013 21.9387 16.3334C22.9451 16.0572 23.9966 15.9852 25.0312 16.1219C26.0658 16.2586 27.0626 16.6011 27.9627 17.1293C28.8662 17.6511 29.6581 18.3458 30.2932 19.1737C30.9282 20.0017 31.394 20.9465 31.6639 21.9544C31.9338 22.9624 32.0025 24.0135 31.8661 25.048C31.7298 26.0825 31.391 27.08 30.8691 27.9835C30.3472 28.887 29.6525 29.6789 28.8246 30.314C27.9967 30.949 27.0518 31.4148 26.0439 31.6847C24.0084 32.2297 21.8396 31.9438 20.0149 30.8899L22.6625 26.3049C23.1159 26.5667 23.6367 26.6882 24.159 26.654C24.6814 26.6198 25.1819 26.4314 25.5972 26.1128C26.0125 25.7941 26.324 25.3594 26.4923 24.8637C26.6606 24.3681 26.6781 23.8336 26.5426 23.3279C26.4071 22.8223 26.1248 22.3682 25.7312 22.023C25.3376 21.6779 24.8505 21.4572 24.3315 21.3888C23.8125 21.3205 23.2849 21.4076 22.8154 21.6391C22.3459 21.8707 21.9556 22.2362 21.6939 22.6896L13.2603 37.3113C12.9093 37.9193 12.8143 38.6419 12.996 39.32C13.1778 39.9981 13.6214 40.5762 14.2294 40.9272C14.8374 41.2782 15.56 41.3732 16.2381 41.1915C16.9162 41.0097 17.4943 40.5661 17.8453 39.9581L20.3528 35.6256C22.9967 36.4525 25.8435 36.3543 28.4242 35.3472C31.0049 34.3401 33.1657 32.4842 34.5507 30.0851C35.9358 27.6859 36.4625 24.8866 36.0441 22.1482C35.6258 19.4097 34.2873 16.8954 32.2491 15.0192Z" fill="white"/>
</g>
<defs>
<linearGradient id="paint0_linear_7856_22461" x1="40.656" y1="3.36" x2="14.16" y2="38.784" gradientUnits="userSpaceOnUse">
<stop stop-color="#E8484E"/>
<stop offset="1" stop-color="#C83238"/>
</linearGradient>
<clipPath id="clip0_7856_22461">
<rect width="48" height="48" fill="white"/>
</clipPath>
</defs>
</svg>
