<svg width="48" height="48" viewBox="0 0 48 48" fill="none" xmlns="http://www.w3.org/2000/svg">
<g clip-path="url(#clip0_7856_22414)">
<path d="M38.4 0H9.6C4.29807 0 0 4.29807 0 9.6V38.4C0 43.7019 4.29807 48 9.6 48H38.4C43.7019 48 48 43.7019 48 38.4V9.6C48 4.29807 43.7019 0 38.4 0Z" fill="#FE0135"/>
<path d="M24.5059 15.6566C24.5128 14.1111 24.9782 12.6023 25.8433 11.3215C26.7084 10.0407 27.9341 9.04541 29.3653 8.4618C30.7965 7.87819 32.3687 7.73247 33.8827 8.04311C35.3967 8.35375 36.7846 9.10677 37.8703 10.2068C38.956 11.3068 39.6909 12.7043 39.9817 14.2223C40.2725 15.7402 40.1063 17.3104 39.504 18.7338C38.9018 20.1572 37.8906 21.3699 36.5986 22.2182C35.3066 23.0664 33.7919 23.5121 32.2464 23.4989C30.1826 23.4771 28.211 22.6406 26.7612 21.1717C25.3113 19.7028 24.5007 17.7205 24.5059 15.6566Z" fill="#FEFDFD"/>
<path d="M15.6794 24.5059C17.2239 24.5047 18.734 24.9617 20.0186 25.8191C21.3033 26.6764 22.3048 27.8955 22.8964 29.3222C23.488 30.7489 23.6432 32.3189 23.3422 33.8338C23.0412 35.3487 22.2977 36.7403 21.2057 37.8324C20.1136 38.9246 18.7222 39.6683 17.2073 39.9695C15.6925 40.2706 14.1224 40.1157 12.6956 39.5242C11.2689 38.9328 10.0497 37.9314 9.19216 36.6469C8.33467 35.3623 7.87747 33.8522 7.87842 32.3078C7.87729 31.283 8.07828 30.268 8.4699 29.321C8.86153 28.374 9.43608 27.5135 10.1607 26.7888C10.8853 26.0641 11.7457 25.4895 12.6927 25.0977C13.6396 24.706 14.6546 24.5049 15.6794 24.5059Z" fill="#FEFDFD"/>
<path d="M15.6315 23.5034H8.4373C7.8229 23.5034 7.84882 23.5034 7.90354 22.9044C7.98945 21.8289 8.17097 20.7633 8.44595 19.7201C9.34387 16.4769 11.2309 13.5946 13.8442 11.4745C16.4575 9.35434 19.6669 8.10201 23.0255 7.8919C23.4411 7.87174 23.5151 7.9831 23.5141 8.3719C23.5007 13.2423 23.5007 18.113 23.5141 22.9841C23.5141 23.4362 23.3739 23.5197 22.9573 23.5159C20.5179 23.4957 18.0738 23.5034 15.6315 23.5034Z" fill="#FEFDFD"/>
<path d="M32.3192 24.5057C34.7777 24.5057 37.2363 24.5124 39.6948 24.499C40.0231 24.499 40.1355 24.5614 40.1057 24.9166C39.9617 27.7329 39.0733 30.4607 37.5312 32.8218C35.9891 35.1828 33.8484 37.0927 31.3275 38.3566C29.3433 39.3995 27.1555 39.9968 24.9166 40.1067C24.5652 40.1297 24.4971 40.0279 24.4971 39.6967C24.508 34.7796 24.508 29.8622 24.4971 24.9444C24.4971 24.5931 24.5777 24.4932 24.9425 24.4951C27.402 24.5143 29.8606 24.5057 32.3192 24.5057Z" fill="#FEFDFD"/>
</g>
<defs>
<clipPath id="clip0_7856_22414">
<rect width="48" height="48" fill="white"/>
</clipPath>
</defs>
</svg>
