<svg width="48" height="48" viewBox="0 0 48 48" fill="none" xmlns="http://www.w3.org/2000/svg">
<g clip-path="url(#clip0_7856_22618)">
<path d="M38.4 0H9.6C4.29807 0 0 4.29807 0 9.6V38.4C0 43.7019 4.29807 48 9.6 48H38.4C43.7019 48 48 43.7019 48 38.4V9.6C48 4.29807 43.7019 0 38.4 0Z" fill="#0E112C"/>
<path d="M24.0002 7.68018C20.7724 7.68018 17.6171 8.63733 14.9333 10.4306C12.2495 12.2239 10.1577 14.7727 8.92247 17.7548C7.68725 20.7369 7.36406 24.0183 7.99377 27.184C8.62348 30.3498 10.1778 33.2578 12.4602 35.5402C14.7426 37.8225 17.6505 39.3769 20.8163 40.0066C23.9821 40.6363 27.2635 40.3131 30.2456 39.0779C33.2277 37.8427 35.7765 35.7509 37.5698 33.0671C39.363 30.3833 40.3202 27.228 40.3202 24.0002C40.3202 19.6718 38.6008 15.5208 35.5402 12.4602C32.4796 9.3996 28.3285 7.68018 24.0002 7.68018ZM31.4882 31.2203C31.4186 31.3346 31.3272 31.434 31.2191 31.5128C31.1111 31.5917 30.9886 31.6485 30.8586 31.6799C30.7286 31.7114 30.5937 31.717 30.4615 31.6962C30.3294 31.6755 30.2026 31.629 30.0885 31.5592C26.2552 29.2168 21.4312 28.6888 15.7509 29.9867C15.6207 30.0164 15.486 30.0202 15.3544 29.9978C15.2228 29.9754 15.0968 29.9273 14.9838 29.8563C14.8708 29.7852 14.7728 29.6926 14.6956 29.5837C14.6183 29.4748 14.5633 29.3518 14.5336 29.2216C14.5039 29.0914 14.5002 28.9567 14.5226 28.8251C14.5449 28.6935 14.593 28.5675 14.6641 28.4545C14.7351 28.3415 14.8277 28.2435 14.9366 28.1663C15.0455 28.0891 15.1686 28.034 15.2987 28.0043C21.5157 26.5835 26.8475 27.196 31.1512 29.8226C31.2651 29.8923 31.3641 29.9838 31.4425 30.0918C31.5209 30.1999 31.5772 30.3224 31.6082 30.4522C31.6391 30.5821 31.6441 30.7168 31.6229 30.8486C31.6016 30.9805 31.5545 31.1068 31.4843 31.2203H31.4882ZM33.4859 26.7765C33.3093 27.064 33.0257 27.2695 32.6975 27.348C32.3694 27.4265 32.0235 27.3715 31.7359 27.1951C26.7788 24.4321 20.9282 23.7485 15.4677 25.2943C15.1449 25.3928 14.7961 25.359 14.4981 25.2004C14.2002 25.0418 13.9774 24.7713 13.8789 24.4485C13.7804 24.1257 13.8141 23.7769 13.9727 23.4789C14.1313 23.181 14.4018 22.9582 14.7247 22.8597C17.7714 21.9816 20.9628 21.7212 24.1115 22.0936C27.2603 22.466 30.3029 23.4638 33.0607 25.0283C33.2033 25.1153 33.3273 25.2296 33.4257 25.3646C33.5241 25.4995 33.5949 25.6526 33.634 25.815C33.6732 25.9774 33.6799 26.1459 33.6538 26.3109C33.6278 26.4759 33.5694 26.6341 33.4821 26.7765H33.4859ZM33.6578 22.1483C28.3931 19.0245 19.7167 18.7375 14.692 20.2619C14.3046 20.3796 13.8864 20.3385 13.5293 20.1477C13.1722 19.957 12.9055 19.6322 12.7879 19.2448C12.6702 18.8574 12.7113 18.4392 12.9021 18.0821C13.0928 17.725 13.4176 17.4583 13.805 17.3407C19.5698 15.5906 29.1544 15.9295 35.213 19.5237C35.3878 19.6247 35.5408 19.7594 35.6632 19.92C35.7856 20.0806 35.8749 20.2638 35.926 20.4592C35.9771 20.6545 35.9889 20.858 35.9608 21.0579C35.9326 21.2579 35.8651 21.4502 35.7621 21.6239C35.6592 21.7976 35.5227 21.9491 35.3608 22.0696C35.1988 22.1902 35.0146 22.2774 34.8187 22.3263C34.6228 22.3752 34.4191 22.3847 34.2195 22.3543C34.0199 22.3239 33.8283 22.2542 33.6559 22.1493L33.6578 22.1483Z" fill="#00FF89"/>
</g>
<defs>
<clipPath id="clip0_7856_22618">
<rect width="48" height="48" fill="white"/>
</clipPath>
</defs>
</svg>
