<svg width="10" height="10" viewBox="0 0 10 10" fill="none" xmlns="http://www.w3.org/2000/svg">
<path d="M4.83135 0C5.78698 0 6.72103 0.279814 7.51557 0.803845C8.3101 1.32788 8.92935 2.07278 9.29499 2.94403C9.66063 3.81557 9.7564 4.77434 9.56989 5.69957C9.38337 6.62479 8.92344 7.47445 8.24773 8.14145C7.57202 8.80845 6.71128 9.26275 5.77397 9.44657C4.83667 9.63068 3.86538 9.53614 2.98246 9.17521C2.09955 8.81428 1.34521 8.20301 0.814339 7.41872C0.283467 6.63442 0 5.71241 0 4.76909C0.00147793 3.50482 0.510772 2.29249 1.41645 1.39849C2.32242 0.50419 3.55028 0.00145888 4.83135 0ZM3.2207 5.16649H4.42847V6.35869C4.42847 6.46402 4.47103 6.56527 4.54641 6.63967C4.62178 6.71408 4.72435 6.75609 4.83106 6.75609C4.93776 6.75609 5.04033 6.71408 5.11571 6.63967C5.19108 6.56527 5.23364 6.46402 5.23364 6.35869V5.16649H6.44141C6.54811 5.16649 6.65068 5.12448 6.72606 5.05007C6.80143 4.97567 6.844 4.87442 6.844 4.76909C6.844 4.66376 6.80143 4.56251 6.72606 4.48811C6.65068 4.41371 6.54811 4.37169 6.44141 4.37169H5.23364V3.17949C5.23364 3.07416 5.19108 2.97291 5.11571 2.89851C5.04033 2.82411 4.93776 2.78209 4.83106 2.78209C4.72435 2.78209 4.62178 2.82411 4.54641 2.89851C4.47103 2.97291 4.42847 3.07416 4.42847 3.17949V4.37169H3.2207C3.114 4.37169 3.01143 4.41371 2.93605 4.48811C2.86068 4.56251 2.81812 4.66376 2.81812 4.76909C2.81812 4.87442 2.86068 4.97567 2.93605 5.05007C3.01143 5.12448 3.114 5.16649 3.2207 5.16649Z" fill="white"/>
</svg>
