<svg width="9" height="15" viewBox="0 0 9 15" fill="none" xmlns="http://www.w3.org/2000/svg">
<path d="M7.68701 0.851404C7.68701 0.56167 7.71036 0.277188 7.7547 0L6.35569 0.258806C4.86446 0.534535 3.7838 1.81981 3.7835 3.3175V9.44861C3.4019 9.22452 2.9665 9.10518 2.52223 9.10256C1.12914 9.10256 0 10.2174 0 11.5923C0 12.9671 1.12943 14.082 2.52223 14.082C3.91504 14.082 5.04447 12.9671 5.04447 11.5923V5.91286C5.04447 5.31355 5.47691 4.79944 6.0737 4.68914L8.84334 4.17562C8.11856 3.25827 7.68671 2.10429 7.68671 0.850821L7.68701 0.851404Z" fill="white"/>
</svg>
